<svg width="224" height="155" viewBox="0 0 224 155" fill="none" xmlns="http://www.w3.org/2000/svg">
<path d="M31.9375 139.625H35.6328C36.4193 139.625 37.1016 139.753 37.6797 140.008C38.2578 140.263 38.7031 140.641 39.0156 141.141C39.3333 141.635 39.4922 142.245 39.4922 142.969C39.4922 143.505 39.3776 143.992 39.1484 144.43C38.9245 144.867 38.6146 145.234 38.2188 145.531C37.8229 145.823 37.3646 146.023 36.8438 146.133L36.5078 146.258H32.5625L32.5469 145.438H35.8516C36.4453 145.438 36.9401 145.323 37.3359 145.094C37.7318 144.865 38.0286 144.562 38.2266 144.188C38.4297 143.807 38.5312 143.401 38.5312 142.969C38.5312 142.453 38.4193 142.008 38.1953 141.633C37.9766 141.253 37.651 140.961 37.2188 140.758C36.7865 140.555 36.2578 140.453 35.6328 140.453H32.8984V151H31.9375V139.625ZM38.9609 151L36.0156 145.914L37.0469 145.906L39.9844 150.898V151H38.9609ZM45.1797 151.156C44.6276 151.156 44.1198 151.055 43.6562 150.852C43.1979 150.648 42.7969 150.362 42.4531 149.992C42.1146 149.622 41.8516 149.185 41.6641 148.68C41.4818 148.169 41.3906 147.612 41.3906 147.008V146.672C41.3906 146.021 41.487 145.432 41.6797 144.906C41.8724 144.38 42.138 143.93 42.4766 143.555C42.8151 143.18 43.2005 142.893 43.6328 142.695C44.0703 142.492 44.5286 142.391 45.0078 142.391C45.5443 142.391 46.0208 142.487 46.4375 142.68C46.8542 142.867 47.2031 143.135 47.4844 143.484C47.7708 143.828 47.987 144.237 48.1328 144.711C48.2786 145.18 48.3516 145.698 48.3516 146.266V146.836H41.9531V146.039H47.4219V145.93C47.4115 145.456 47.3151 145.013 47.1328 144.602C46.9557 144.185 46.6901 143.846 46.3359 143.586C45.9818 143.326 45.5391 143.195 45.0078 143.195C44.612 143.195 44.2474 143.279 43.9141 143.445C43.5859 143.612 43.3021 143.852 43.0625 144.164C42.8281 144.471 42.6458 144.839 42.5156 145.266C42.3906 145.688 42.3281 146.156 42.3281 146.672V147.008C42.3281 147.477 42.3958 147.914 42.5312 148.32C42.6719 148.721 42.8698 149.076 43.125 149.383C43.3854 149.69 43.6927 149.93 44.0469 150.102C44.401 150.273 44.7917 150.359 45.2188 150.359C45.7188 150.359 46.1615 150.268 46.5469 150.086C46.9323 149.898 47.2786 149.604 47.5859 149.203L48.1719 149.656C47.9896 149.927 47.7604 150.177 47.4844 150.406C47.2135 150.635 46.888 150.818 46.5078 150.953C46.1276 151.089 45.6849 151.156 45.1797 151.156ZM53.3125 150.352C53.7083 150.352 54.0781 150.279 54.4219 150.133C54.7708 149.982 55.0573 149.76 55.2812 149.469C55.5104 149.172 55.6406 148.81 55.6719 148.383H56.5625C56.5365 148.919 56.3724 149.398 56.0703 149.82C55.7734 150.237 55.3828 150.565 54.8984 150.805C54.4193 151.039 53.8906 151.156 53.3125 151.156C52.724 151.156 52.2031 151.049 51.75 150.836C51.3021 150.622 50.9271 150.326 50.625 149.945C50.3229 149.56 50.0938 149.112 49.9375 148.602C49.7865 148.086 49.7109 147.531 49.7109 146.938V146.609C49.7109 146.016 49.7865 145.464 49.9375 144.953C50.0938 144.438 50.3229 143.99 50.625 143.609C50.9271 143.224 51.3021 142.924 51.75 142.711C52.1979 142.497 52.7161 142.391 53.3047 142.391C53.9089 142.391 54.4505 142.513 54.9297 142.758C55.4141 143.003 55.7995 143.349 56.0859 143.797C56.3776 144.245 56.5365 144.776 56.5625 145.391H55.6719C55.6458 144.938 55.526 144.547 55.3125 144.219C55.099 143.891 54.8177 143.638 54.4688 143.461C54.1198 143.284 53.7318 143.195 53.3047 143.195C52.8255 143.195 52.4167 143.289 52.0781 143.477C51.7396 143.659 51.4635 143.911 51.25 144.234C51.0417 144.552 50.888 144.917 50.7891 145.328C50.6901 145.734 50.6406 146.161 50.6406 146.609V146.938C50.6406 147.391 50.6875 147.823 50.7812 148.234C50.8802 148.641 51.0339 149.003 51.2422 149.32C51.4557 149.638 51.7318 149.891 52.0703 150.078C52.4141 150.26 52.8281 150.352 53.3125 150.352ZM61.7109 151.156C61.1589 151.156 60.651 151.055 60.1875 150.852C59.7292 150.648 59.3281 150.362 58.9844 149.992C58.6458 149.622 58.3828 149.185 58.1953 148.68C58.013 148.169 57.9219 147.612 57.9219 147.008V146.672C57.9219 146.021 58.0182 145.432 58.2109 144.906C58.4036 144.38 58.6693 143.93 59.0078 143.555C59.3464 143.18 59.7318 142.893 60.1641 142.695C60.6016 142.492 61.0599 142.391 61.5391 142.391C62.0755 142.391 62.5521 142.487 62.9688 142.68C63.3854 142.867 63.7344 143.135 64.0156 143.484C64.3021 143.828 64.5182 144.237 64.6641 144.711C64.8099 145.18 64.8828 145.698 64.8828 146.266V146.836H58.4844V146.039H63.9531V145.93C63.9427 145.456 63.8464 145.013 63.6641 144.602C63.487 144.185 63.2214 143.846 62.8672 143.586C62.513 143.326 62.0703 143.195 61.5391 143.195C61.1432 143.195 60.7786 143.279 60.4453 143.445C60.1172 143.612 59.8333 143.852 59.5938 144.164C59.3594 144.471 59.1771 144.839 59.0469 145.266C58.9219 145.688 58.8594 146.156 58.8594 146.672V147.008C58.8594 147.477 58.9271 147.914 59.0625 148.32C59.2031 148.721 59.401 149.076 59.6562 149.383C59.9167 149.69 60.224 149.93 60.5781 150.102C60.9323 150.273 61.3229 150.359 61.75 150.359C62.25 150.359 62.6927 150.268 63.0781 150.086C63.4635 149.898 63.8099 149.604 64.1172 149.203L64.7031 149.656C64.5208 149.927 64.2917 150.177 64.0156 150.406C63.7448 150.635 63.4193 150.818 63.0391 150.953C62.6589 151.089 62.2161 151.156 61.7109 151.156ZM67.7656 142.547V151H66.8359V142.547H67.7656ZM66.6719 140.102C66.6719 139.924 66.7266 139.776 66.8359 139.656C66.9505 139.531 67.1068 139.469 67.3047 139.469C67.5026 139.469 67.6589 139.531 67.7734 139.656C67.8932 139.776 67.9531 139.924 67.9531 140.102C67.9531 140.273 67.8932 140.422 67.7734 140.547C67.6589 140.667 67.5026 140.727 67.3047 140.727C67.1068 140.727 66.9505 140.667 66.8359 140.547C66.7266 140.422 66.6719 140.273 66.6719 140.102ZM72.8125 150.102L75.5234 142.547H76.4844L73.3203 151H72.6406L72.8125 150.102ZM70.3594 142.547L73.1016 150.125L73.25 151H72.5625L69.3906 142.547H70.3594ZM81.1797 151.156C80.6276 151.156 80.1198 151.055 79.6562 150.852C79.1979 150.648 78.7969 150.362 78.4531 149.992C78.1146 149.622 77.8516 149.185 77.6641 148.68C77.4818 148.169 77.3906 147.612 77.3906 147.008V146.672C77.3906 146.021 77.487 145.432 77.6797 144.906C77.8724 144.38 78.138 143.93 78.4766 143.555C78.8151 143.18 79.2005 142.893 79.6328 142.695C80.0703 142.492 80.5286 142.391 81.0078 142.391C81.5443 142.391 82.0208 142.487 82.4375 142.68C82.8542 142.867 83.2031 143.135 83.4844 143.484C83.7708 143.828 83.987 144.237 84.1328 144.711C84.2786 145.18 84.3516 145.698 84.3516 146.266V146.836H77.9531V146.039H83.4219V145.93C83.4115 145.456 83.3151 145.013 83.1328 144.602C82.9557 144.185 82.6901 143.846 82.3359 143.586C81.9818 143.326 81.5391 143.195 81.0078 143.195C80.612 143.195 80.2474 143.279 79.9141 143.445C79.5859 143.612 79.3021 143.852 79.0625 144.164C78.8281 144.471 78.6458 144.839 78.5156 145.266C78.3906 145.688 78.3281 146.156 78.3281 146.672V147.008C78.3281 147.477 78.3958 147.914 78.5312 148.32C78.6719 148.721 78.8698 149.076 79.125 149.383C79.3854 149.69 79.6927 149.93 80.0469 150.102C80.401 150.273 80.7917 150.359 81.2188 150.359C81.7188 150.359 82.1615 150.268 82.5469 150.086C82.9323 149.898 83.2786 149.604 83.5859 149.203L84.1719 149.656C83.9896 149.927 83.7604 150.177 83.4844 150.406C83.2135 150.635 82.888 150.818 82.5078 150.953C82.1276 151.089 81.6849 151.156 81.1797 151.156ZM93.2969 142.547V143.312H89.0625V142.547H93.2969ZM90.6172 140.375H91.5469V148.945C91.5469 149.336 91.599 149.63 91.7031 149.828C91.8073 150.026 91.9427 150.159 92.1094 150.227C92.276 150.294 92.4557 150.328 92.6484 150.328C92.7891 150.328 92.9245 150.32 93.0547 150.305C93.1849 150.284 93.3021 150.263 93.4062 150.242L93.4453 151.031C93.3307 151.068 93.1823 151.096 93 151.117C92.8177 151.143 92.6354 151.156 92.4531 151.156C92.0938 151.156 91.776 151.091 91.5 150.961C91.224 150.826 91.0078 150.596 90.8516 150.273C90.6953 149.945 90.6172 149.5 90.6172 148.938V140.375ZM100.398 149.484V145.125C100.398 144.724 100.315 144.378 100.148 144.086C99.9818 143.794 99.737 143.57 99.4141 143.414C99.0911 143.258 98.6927 143.18 98.2188 143.18C97.7812 143.18 97.3906 143.258 97.0469 143.414C96.7083 143.565 96.4401 143.771 96.2422 144.031C96.0495 144.286 95.9531 144.57 95.9531 144.883L95.0156 144.875C95.0156 144.557 95.0938 144.25 95.25 143.953C95.4062 143.656 95.6276 143.391 95.9141 143.156C96.2005 142.922 96.5417 142.737 96.9375 142.602C97.3385 142.461 97.7786 142.391 98.2578 142.391C98.862 142.391 99.3932 142.492 99.8516 142.695C100.315 142.898 100.677 143.203 100.938 143.609C101.198 144.016 101.328 144.526 101.328 145.141V149.227C101.328 149.518 101.349 149.82 101.391 150.133C101.438 150.445 101.503 150.703 101.586 150.906V151H100.594C100.531 150.812 100.482 150.578 100.445 150.297C100.414 150.01 100.398 149.74 100.398 149.484ZM100.617 146.078L100.633 146.797H98.7969C98.3177 146.797 97.888 146.841 97.5078 146.93C97.1328 147.013 96.8151 147.138 96.5547 147.305C96.2943 147.466 96.0938 147.661 95.9531 147.891C95.8177 148.12 95.75 148.38 95.75 148.672C95.75 148.974 95.8255 149.25 95.9766 149.5C96.1328 149.75 96.3516 149.951 96.6328 150.102C96.9193 150.247 97.2578 150.32 97.6484 150.32C98.1693 150.32 98.6276 150.224 99.0234 150.031C99.4245 149.839 99.7552 149.586 100.016 149.273C100.276 148.961 100.451 148.62 100.539 148.25L100.945 148.789C100.878 149.049 100.753 149.318 100.57 149.594C100.393 149.865 100.161 150.12 99.875 150.359C99.5885 150.594 99.25 150.786 98.8594 150.938C98.474 151.083 98.0365 151.156 97.5469 151.156C96.9948 151.156 96.513 151.052 96.1016 150.844C95.6953 150.635 95.3776 150.352 95.1484 149.992C94.9245 149.628 94.8125 149.216 94.8125 148.758C94.8125 148.341 94.901 147.969 95.0781 147.641C95.2552 147.307 95.5104 147.026 95.8438 146.797C96.1823 146.562 96.5885 146.385 97.0625 146.266C97.5417 146.141 98.0781 146.078 98.6719 146.078H100.617ZM104.766 144.352V151H103.836V142.547H104.727L104.766 144.352ZM104.555 146.25L104.141 146.016C104.172 145.516 104.273 145.047 104.445 144.609C104.617 144.172 104.849 143.786 105.141 143.453C105.438 143.12 105.784 142.859 106.18 142.672C106.581 142.484 107.023 142.391 107.508 142.391C107.93 142.391 108.307 142.448 108.641 142.562C108.974 142.677 109.258 142.859 109.492 143.109C109.727 143.359 109.904 143.68 110.023 144.07C110.148 144.461 110.211 144.938 110.211 145.5V151H109.273V145.492C109.273 144.909 109.193 144.453 109.031 144.125C108.87 143.792 108.641 143.555 108.344 143.414C108.047 143.273 107.695 143.203 107.289 143.203C106.841 143.203 106.448 143.302 106.109 143.5C105.776 143.693 105.495 143.945 105.266 144.258C105.042 144.565 104.87 144.896 104.75 145.25C104.63 145.599 104.565 145.932 104.555 146.25ZM118.195 142.547H119.062V150.852C119.062 151.586 118.922 152.216 118.641 152.742C118.365 153.268 117.971 153.672 117.461 153.953C116.956 154.234 116.359 154.375 115.672 154.375C115.323 154.375 114.964 154.32 114.594 154.211C114.229 154.107 113.883 153.945 113.555 153.727C113.232 153.513 112.956 153.247 112.727 152.93L113.25 152.359C113.594 152.776 113.961 153.081 114.352 153.273C114.742 153.471 115.164 153.57 115.617 153.57C116.154 153.57 116.607 153.464 116.977 153.25C117.352 153.036 117.635 152.729 117.828 152.328C118.026 151.927 118.125 151.445 118.125 150.883V144.406L118.195 142.547ZM112.258 146.859V146.695C112.258 146.039 112.331 145.448 112.477 144.922C112.628 144.391 112.844 143.938 113.125 143.562C113.406 143.182 113.747 142.893 114.148 142.695C114.555 142.492 115.013 142.391 115.523 142.391C116.013 142.391 116.448 142.471 116.828 142.633C117.208 142.794 117.536 143.026 117.812 143.328C118.089 143.63 118.31 143.99 118.477 144.406C118.648 144.823 118.773 145.286 118.852 145.797V147.883C118.789 148.362 118.674 148.802 118.508 149.203C118.341 149.599 118.12 149.945 117.844 150.242C117.568 150.534 117.234 150.76 116.844 150.922C116.458 151.078 116.013 151.156 115.508 151.156C115.003 151.156 114.549 151.052 114.148 150.844C113.747 150.635 113.406 150.341 113.125 149.961C112.844 149.576 112.628 149.12 112.477 148.594C112.331 148.068 112.258 147.49 112.258 146.859ZM113.195 146.695V146.859C113.195 147.354 113.245 147.812 113.344 148.234C113.443 148.656 113.594 149.023 113.797 149.336C114 149.648 114.258 149.893 114.57 150.07C114.883 150.247 115.25 150.336 115.672 150.336C116.208 150.336 116.659 150.234 117.023 150.031C117.388 149.823 117.677 149.549 117.891 149.211C118.104 148.867 118.26 148.492 118.359 148.086V145.656C118.302 145.38 118.214 145.099 118.094 144.812C117.979 144.526 117.818 144.263 117.609 144.023C117.406 143.779 117.146 143.583 116.828 143.438C116.516 143.286 116.135 143.211 115.688 143.211C115.26 143.211 114.888 143.299 114.57 143.477C114.258 143.654 114 143.901 113.797 144.219C113.594 144.531 113.443 144.898 113.344 145.32C113.245 145.742 113.195 146.201 113.195 146.695ZM122.547 142.547V151H121.617V142.547H122.547ZM121.453 140.102C121.453 139.924 121.508 139.776 121.617 139.656C121.732 139.531 121.888 139.469 122.086 139.469C122.284 139.469 122.44 139.531 122.555 139.656C122.674 139.776 122.734 139.924 122.734 140.102C122.734 140.273 122.674 140.422 122.555 140.547C122.44 140.667 122.284 140.727 122.086 140.727C121.888 140.727 121.732 140.667 121.617 140.547C121.508 140.422 121.453 140.273 121.453 140.102ZM125.086 139H126.023V149.359L125.961 151H125.086V139ZM131.906 146.695V146.859C131.906 147.49 131.833 148.068 131.688 148.594C131.542 149.12 131.331 149.576 131.055 149.961C130.779 150.341 130.44 150.635 130.039 150.844C129.643 151.052 129.188 151.156 128.672 151.156C128.167 151.156 127.719 151.078 127.328 150.922C126.938 150.76 126.604 150.534 126.328 150.242C126.052 149.945 125.831 149.599 125.664 149.203C125.497 148.802 125.38 148.362 125.312 147.883V145.797C125.391 145.286 125.516 144.823 125.688 144.406C125.859 143.99 126.081 143.63 126.352 143.328C126.628 143.026 126.956 142.794 127.336 142.633C127.721 142.471 128.161 142.391 128.656 142.391C129.172 142.391 129.63 142.492 130.031 142.695C130.438 142.893 130.779 143.182 131.055 143.562C131.331 143.938 131.542 144.391 131.688 144.922C131.833 145.448 131.906 146.039 131.906 146.695ZM130.961 146.859V146.695C130.961 146.201 130.914 145.742 130.82 145.32C130.727 144.898 130.578 144.531 130.375 144.219C130.177 143.901 129.922 143.654 129.609 143.477C129.297 143.299 128.922 143.211 128.484 143.211C128.036 143.211 127.654 143.286 127.336 143.438C127.023 143.583 126.763 143.779 126.555 144.023C126.352 144.263 126.19 144.526 126.07 144.812C125.951 145.099 125.862 145.38 125.805 145.656V148.086C125.893 148.477 126.047 148.844 126.266 149.188C126.484 149.531 126.779 149.81 127.148 150.023C127.518 150.232 127.969 150.336 128.5 150.336C128.927 150.336 129.294 150.247 129.602 150.07C129.914 149.893 130.169 149.648 130.367 149.336C130.57 149.023 130.719 148.656 130.812 148.234C130.911 147.812 130.961 147.354 130.961 146.859ZM135.016 139V151H134.086V139H135.016ZM140.836 151.156C140.284 151.156 139.776 151.055 139.312 150.852C138.854 150.648 138.453 150.362 138.109 149.992C137.771 149.622 137.508 149.185 137.32 148.68C137.138 148.169 137.047 147.612 137.047 147.008V146.672C137.047 146.021 137.143 145.432 137.336 144.906C137.529 144.38 137.794 143.93 138.133 143.555C138.471 143.18 138.857 142.893 139.289 142.695C139.727 142.492 140.185 142.391 140.664 142.391C141.201 142.391 141.677 142.487 142.094 142.68C142.51 142.867 142.859 143.135 143.141 143.484C143.427 143.828 143.643 144.237 143.789 144.711C143.935 145.18 144.008 145.698 144.008 146.266V146.836H137.609V146.039H143.078V145.93C143.068 145.456 142.971 145.013 142.789 144.602C142.612 144.185 142.346 143.846 141.992 143.586C141.638 143.326 141.195 143.195 140.664 143.195C140.268 143.195 139.904 143.279 139.57 143.445C139.242 143.612 138.958 143.852 138.719 144.164C138.484 144.471 138.302 144.839 138.172 145.266C138.047 145.688 137.984 146.156 137.984 146.672V147.008C137.984 147.477 138.052 147.914 138.188 148.32C138.328 148.721 138.526 149.076 138.781 149.383C139.042 149.69 139.349 149.93 139.703 150.102C140.057 150.273 140.448 150.359 140.875 150.359C141.375 150.359 141.818 150.268 142.203 150.086C142.589 149.898 142.935 149.604 143.242 149.203L143.828 149.656C143.646 149.927 143.417 150.177 143.141 150.406C142.87 150.635 142.544 150.818 142.164 150.953C141.784 151.089 141.341 151.156 140.836 151.156ZM150.68 144.172V154.25H149.742V142.547H150.617L150.68 144.172ZM156.555 146.695V146.859C156.555 147.49 156.482 148.068 156.336 148.594C156.19 149.12 155.979 149.576 155.703 149.961C155.432 150.341 155.096 150.635 154.695 150.844C154.294 151.052 153.839 151.156 153.328 151.156C152.823 151.156 152.372 151.078 151.977 150.922C151.581 150.766 151.24 150.544 150.953 150.258C150.672 149.966 150.445 149.628 150.273 149.242C150.107 148.852 149.99 148.424 149.922 147.961V145.797C150 145.286 150.128 144.823 150.305 144.406C150.482 143.99 150.708 143.63 150.984 143.328C151.266 143.026 151.599 142.794 151.984 142.633C152.37 142.471 152.81 142.391 153.305 142.391C153.82 142.391 154.279 142.492 154.68 142.695C155.086 142.893 155.427 143.182 155.703 143.562C155.984 143.938 156.195 144.391 156.336 144.922C156.482 145.448 156.555 146.039 156.555 146.695ZM155.617 146.859V146.695C155.617 146.201 155.565 145.742 155.461 145.32C155.362 144.898 155.208 144.531 155 144.219C154.797 143.901 154.536 143.654 154.219 143.477C153.906 143.299 153.534 143.211 153.102 143.211C152.654 143.211 152.271 143.286 151.953 143.438C151.641 143.583 151.38 143.779 151.172 144.023C150.964 144.263 150.799 144.526 150.68 144.812C150.56 145.099 150.471 145.38 150.414 145.656V148.148C150.513 148.544 150.672 148.911 150.891 149.25C151.109 149.583 151.401 149.852 151.766 150.055C152.135 150.253 152.586 150.352 153.117 150.352C153.544 150.352 153.914 150.263 154.227 150.086C154.539 149.909 154.797 149.661 155 149.344C155.208 149.026 155.362 148.656 155.461 148.234C155.565 147.812 155.617 147.354 155.617 146.859ZM159.562 143.945V151H158.633V142.547H159.539L159.562 143.945ZM162.555 142.484L162.531 143.344C162.427 143.328 162.326 143.315 162.227 143.305C162.128 143.294 162.021 143.289 161.906 143.289C161.5 143.289 161.143 143.365 160.836 143.516C160.534 143.661 160.279 143.867 160.07 144.133C159.862 144.393 159.703 144.701 159.594 145.055C159.484 145.404 159.422 145.779 159.406 146.18L159.062 146.312C159.062 145.76 159.12 145.247 159.234 144.773C159.349 144.299 159.523 143.885 159.758 143.531C159.997 143.172 160.297 142.893 160.656 142.695C161.021 142.492 161.448 142.391 161.938 142.391C162.057 142.391 162.174 142.401 162.289 142.422C162.409 142.438 162.497 142.458 162.555 142.484ZM163.352 146.906V146.648C163.352 146.034 163.44 145.466 163.617 144.945C163.794 144.424 164.047 143.974 164.375 143.594C164.708 143.214 165.107 142.919 165.57 142.711C166.034 142.497 166.549 142.391 167.117 142.391C167.69 142.391 168.208 142.497 168.672 142.711C169.135 142.919 169.534 143.214 169.867 143.594C170.201 143.974 170.456 144.424 170.633 144.945C170.81 145.466 170.898 146.034 170.898 146.648V146.906C170.898 147.521 170.81 148.089 170.633 148.609C170.456 149.125 170.201 149.573 169.867 149.953C169.539 150.333 169.143 150.63 168.68 150.844C168.216 151.052 167.701 151.156 167.133 151.156C166.56 151.156 166.042 151.052 165.578 150.844C165.115 150.63 164.716 150.333 164.383 149.953C164.049 149.573 163.794 149.125 163.617 148.609C163.44 148.089 163.352 147.521 163.352 146.906ZM164.281 146.648V146.906C164.281 147.37 164.344 147.81 164.469 148.227C164.594 148.638 164.776 149.005 165.016 149.328C165.255 149.646 165.552 149.896 165.906 150.078C166.26 150.26 166.669 150.352 167.133 150.352C167.591 150.352 167.995 150.26 168.344 150.078C168.698 149.896 168.995 149.646 169.234 149.328C169.474 149.005 169.654 148.638 169.773 148.227C169.898 147.81 169.961 147.37 169.961 146.906V146.648C169.961 146.19 169.898 145.755 169.773 145.344C169.654 144.932 169.471 144.565 169.227 144.242C168.987 143.919 168.69 143.664 168.336 143.477C167.982 143.289 167.576 143.195 167.117 143.195C166.659 143.195 166.253 143.289 165.898 143.477C165.549 143.664 165.253 143.919 165.008 144.242C164.768 144.565 164.586 144.932 164.461 145.344C164.341 145.755 164.281 146.19 164.281 146.648ZM174.328 151H173.398V141.656C173.398 141.047 173.51 140.534 173.734 140.117C173.964 139.695 174.286 139.378 174.703 139.164C175.125 138.945 175.625 138.836 176.203 138.836C176.552 138.836 176.906 138.875 177.266 138.953C177.625 139.031 177.987 139.146 178.352 139.297L178.203 140.109C177.927 139.99 177.638 139.891 177.336 139.812C177.034 139.734 176.674 139.695 176.258 139.695C175.622 139.695 175.141 139.862 174.812 140.195C174.49 140.529 174.328 141.016 174.328 141.656V151ZM176.305 142.547V143.312H171.992V142.547H176.305ZM178.859 142.547V151H177.93V142.547H178.859ZM184.641 142.547V143.312H180.406V142.547H184.641ZM181.961 140.375H182.891V148.945C182.891 149.336 182.943 149.63 183.047 149.828C183.151 150.026 183.286 150.159 183.453 150.227C183.62 150.294 183.799 150.328 183.992 150.328C184.133 150.328 184.268 150.32 184.398 150.305C184.529 150.284 184.646 150.263 184.75 150.242L184.789 151.031C184.674 151.068 184.526 151.096 184.344 151.117C184.161 151.143 183.979 151.156 183.797 151.156C183.438 151.156 183.12 151.091 182.844 150.961C182.568 150.826 182.352 150.596 182.195 150.273C182.039 149.945 181.961 149.5 181.961 148.938V140.375ZM191.664 148.844C191.664 148.615 191.607 148.388 191.492 148.164C191.378 147.94 191.156 147.734 190.828 147.547C190.505 147.359 190.029 147.201 189.398 147.07C188.93 146.966 188.51 146.849 188.141 146.719C187.776 146.589 187.469 146.432 187.219 146.25C186.969 146.068 186.779 145.849 186.648 145.594C186.518 145.339 186.453 145.036 186.453 144.688C186.453 144.375 186.521 144.081 186.656 143.805C186.797 143.523 186.995 143.279 187.25 143.07C187.51 142.857 187.823 142.69 188.188 142.57C188.557 142.451 188.971 142.391 189.43 142.391C190.081 142.391 190.638 142.503 191.102 142.727C191.57 142.945 191.927 143.245 192.172 143.625C192.422 144.005 192.547 144.435 192.547 144.914H191.617C191.617 144.622 191.531 144.346 191.359 144.086C191.193 143.826 190.945 143.612 190.617 143.445C190.294 143.279 189.898 143.195 189.43 143.195C188.945 143.195 188.552 143.268 188.25 143.414C187.948 143.56 187.727 143.745 187.586 143.969C187.451 144.193 187.383 144.424 187.383 144.664C187.383 144.852 187.411 145.023 187.469 145.18C187.531 145.331 187.641 145.471 187.797 145.602C187.958 145.732 188.188 145.854 188.484 145.969C188.781 146.083 189.167 146.195 189.641 146.305C190.323 146.456 190.88 146.641 191.312 146.859C191.75 147.073 192.073 147.339 192.281 147.656C192.49 147.969 192.594 148.349 192.594 148.797C192.594 149.146 192.521 149.466 192.375 149.758C192.229 150.044 192.018 150.292 191.742 150.5C191.471 150.708 191.143 150.87 190.758 150.984C190.378 151.099 189.951 151.156 189.477 151.156C188.763 151.156 188.159 151.039 187.664 150.805C187.174 150.565 186.802 150.253 186.547 149.867C186.297 149.477 186.172 149.062 186.172 148.625H187.102C187.133 149.062 187.271 149.409 187.516 149.664C187.76 149.914 188.06 150.091 188.414 150.195C188.773 150.299 189.128 150.352 189.477 150.352C189.956 150.352 190.357 150.281 190.68 150.141C191.003 150 191.247 149.815 191.414 149.586C191.581 149.357 191.664 149.109 191.664 148.844Z" fill="#EFEFEF"/>
<path fill-rule="evenodd" clip-rule="evenodd" d="M112.486 1.01126C144.242 1.01126 169.986 26.7545 169.986 58.5108C169.986 90.2673 144.242 116.011 112.486 116.011C80.7296 116.011 54.9861 90.2673 54.9861 58.5108C54.9861 26.7545 80.7296 1.01126 112.486 1.01126Z" fill="#F9BF3B"/>
<g clip-path="url(#clip0_235903_182)">
<path d="M112 89C128.569 89 142 75.5685 142 59C142 42.4315 128.569 29 112 29C95.4315 29 82 42.4315 82 59C82 75.5685 95.4315 89 112 89Z" fill="#3DB9E3"/>
<path d="M137 40H89C87.8954 40 87 40.8954 87 42V75C87 76.1046 87.8954 77 89 77H137C138.105 77 139 76.1046 139 75V42C139 40.8954 138.105 40 137 40Z" fill="#343840"/>
<path d="M93 44L129 29L134 44H93Z" fill="#2CA651"/>
<path d="M134 43H89C87.8954 43 87 43.8954 87 45V78C87 79.1046 87.8954 80 89 80H134C135.105 80 136 79.1046 136 78V45C136 43.8954 135.105 43 134 43Z" fill="#464C59"/>
<path d="M89 46H91" stroke="#1E3064" stroke-width="1.75" stroke-miterlimit="10"/>
<path d="M89 46H91" stroke="#FFFB01" stroke-miterlimit="10"/>
<path d="M93 46H95" stroke="#1E3064" stroke-width="1.75" stroke-miterlimit="10"/>
<path d="M93 46H95" stroke="#FFFB01" stroke-miterlimit="10"/>
<path d="M97 46H99" stroke="#1E3064" stroke-width="1.75" stroke-miterlimit="10"/>
<path d="M97 46H99" stroke="#FFFB01" stroke-miterlimit="10"/>
<path d="M101 46H103" stroke="#1E3064" stroke-width="1.75" stroke-miterlimit="10"/>
<path d="M101 46H103" stroke="#FFFB01" stroke-miterlimit="10"/>
<path d="M105 46H107" stroke="#1E3064" stroke-width="1.75" stroke-miterlimit="10"/>
<path d="M105 46H107" stroke="#FFFB01" stroke-miterlimit="10"/>
<path d="M109 46H111" stroke="#1E3064" stroke-width="1.75" stroke-miterlimit="10"/>
<path d="M109 46H111" stroke="#FFFB01" stroke-miterlimit="10"/>
<path d="M113 46H115" stroke="#1E3064" stroke-width="1.75" stroke-miterlimit="10"/>
<path d="M113 46H115" stroke="#FFFB01" stroke-miterlimit="10"/>
<path d="M117 46H119" stroke="#1E3064" stroke-width="1.75" stroke-miterlimit="10"/>
<path d="M117 46H119" stroke="#FFFB01" stroke-miterlimit="10"/>
<path d="M121 46H123" stroke="#1E3064" stroke-width="1.75" stroke-miterlimit="10"/>
<path d="M121 46H123" stroke="#FFFB01" stroke-miterlimit="10"/>
<path d="M125 46H127" stroke="#1E3064" stroke-width="1.75" stroke-miterlimit="10"/>
<path d="M125 46H127" stroke="#FFFB01" stroke-miterlimit="10"/>
<path d="M129 46H131" stroke="#1E3064" stroke-width="1.75" stroke-miterlimit="10"/>
<path d="M129 46H131" stroke="#FFFB01" stroke-miterlimit="10"/>
<path d="M133 46H135" stroke="#1E3064" stroke-width="1.75" stroke-miterlimit="10"/>
<path d="M133 46H135" stroke="#FFFB01" stroke-miterlimit="10"/>
<path d="M89 77H91" stroke="#1E3064" stroke-width="1.75" stroke-miterlimit="10"/>
<path d="M89 77H91" stroke="#FFFB01" stroke-miterlimit="10"/>
<path d="M93 77H95" stroke="#1E3064" stroke-width="1.75" stroke-miterlimit="10"/>
<path d="M93 77H95" stroke="#FFFB01" stroke-miterlimit="10"/>
<path d="M97 77H99" stroke="#1E3064" stroke-width="1.75" stroke-miterlimit="10"/>
<path d="M97 77H99" stroke="#FFFB01" stroke-miterlimit="10"/>
<path d="M101 77H103" stroke="#1E3064" stroke-width="1.75" stroke-miterlimit="10"/>
<path d="M101 77H103" stroke="#FFFB01" stroke-miterlimit="10"/>
<path d="M105 77H107" stroke="#1E3064" stroke-width="1.75" stroke-miterlimit="10"/>
<path d="M105 77H107" stroke="#FFFB01" stroke-miterlimit="10"/>
<path d="M109 77H111" stroke="#1E3064" stroke-width="1.75" stroke-miterlimit="10"/>
<path d="M109 77H111" stroke="#FFFB01" stroke-miterlimit="10"/>
<path d="M113 77H115" stroke="#1E3064" stroke-width="1.75" stroke-miterlimit="10"/>
<path d="M113 77H115" stroke="#FFFB01" stroke-miterlimit="10"/>
<path d="M117 77H119" stroke="#1E3064" stroke-width="1.75" stroke-miterlimit="10"/>
<path d="M117 77H119" stroke="#FFFB01" stroke-miterlimit="10"/>
<path d="M121 77H123" stroke="#1E3064" stroke-width="1.75" stroke-miterlimit="10"/>
<path d="M121 77H123" stroke="#FFFB01" stroke-miterlimit="10"/>
<path d="M125 77H127" stroke="#1E3064" stroke-width="1.75" stroke-miterlimit="10"/>
<path d="M125 77H127" stroke="#FFFB01" stroke-miterlimit="10"/>
<path d="M129 77H131" stroke="#1E3064" stroke-width="1.75" stroke-miterlimit="10"/>
<path d="M129 77H131" stroke="#FFFB01" stroke-miterlimit="10"/>
<path d="M133 77H135" stroke="#1E3064" stroke-width="1.75" stroke-miterlimit="10"/>
<path d="M133 77H135" stroke="#FFFB01" stroke-miterlimit="10"/>
<path d="M125.5 39C126.881 39 128 37.8807 128 36.5C128 35.1193 126.881 34 125.5 34C124.119 34 123 35.1193 123 36.5C123 37.8807 124.119 39 125.5 39Z" fill="#4DB678"/>
<path d="M125 57H136V67H125C124.735 67 124.48 66.8946 124.293 66.7071C124.105 66.5196 124 66.2652 124 66V58C124 57.7348 124.105 57.4804 124.293 57.2929C124.48 57.1054 124.735 57 125 57Z" fill="#343840"/>
<path d="M127.5 63.5C128.328 63.5 129 62.8284 129 62C129 61.1716 128.328 60.5 127.5 60.5C126.672 60.5 126 61.1716 126 62C126 62.8284 126.672 63.5 127.5 63.5Z" fill="#8D8D93"/>
<path d="M132.5 64.5C133.881 64.5 135 63.3807 135 62C135 60.6193 133.881 59.5 132.5 59.5C131.119 59.5 130 60.6193 130 62C130 63.3807 131.119 64.5 132.5 64.5Z" fill="#8D8D93"/>
<path d="M132.5 63C133.052 63 133.5 62.5523 133.5 62C133.5 61.4477 133.052 61 132.5 61C131.948 61 131.5 61.4477 131.5 62C131.5 62.5523 131.948 63 132.5 63Z" fill="#DEDCE0"/>
</g>
<defs>
<clipPath id="clip0_235903_182">
<rect width="60" height="60" fill="white" transform="translate(82 29)"/>
</clipPath>
</defs>
</svg>
